<svg xmlns="http://www.w3.org/2000/svg" width="296" height="217" viewBox="0 0 296 217" version="1.1"><path d="M 161.500 17.509 C 160.950 17.702, 152.850 20.127, 143.500 22.898 C 134.150 25.669, 122.900 29.417, 118.500 31.227 C 108.462 35.357, 94 42.944, 94 44.080 C 94 44.552, 95.966 47.989, 98.368 51.719 C 103.979 60.429, 106.647 65.719, 110.107 75 C 111.645 79.125, 112.925 81.923, 112.951 81.218 C 113.100 77.311, 103.603 57.275, 96.655 46.835 L 94.881 44.170 103.191 39.668 C 115.187 33.170, 129.133 28.076, 154.152 21.052 L 163.997 18.288 167.485 23.543 C 170.487 28.065, 173 33.088, 173 34.565 C 173 34.804, 172.183 35, 171.185 35 C 170.096 35, 168.703 33.601, 167.701 31.500 C 166.449 28.874, 165.406 28, 163.525 28 C 162.142 28, 160.483 27.146, 159.828 26.097 C 158.690 24.274, 157.937 24.440, 142.070 30.004 C 109.033 41.588, 109.940 41.169, 108.314 45.580 C 107.519 47.736, 106.637 50.226, 106.353 51.114 C 106.070 52.002, 107.492 56.014, 109.515 60.029 C 118.081 77.039, 124.975 99.715, 124.991 110.932 C 124.996 114.470, 124.482 121.402, 123.850 126.336 C 122.783 134.654, 122.833 135.405, 124.541 136.653 C 127.277 138.654, 129.015 138.292, 128.884 135.750 C 128.806 134.233, 128.626 134.035, 128.331 135.143 C 128.038 136.246, 127.216 136.608, 125.826 136.244 C 123.685 135.684, 123.669 135.116, 125.466 123.427 C 125.642 122.286, 126.016 113.061, 126.298 102.927 C 126.581 92.792, 126.477 86.975, 126.069 90 C 125.660 93.025, 125.253 94.657, 125.163 93.627 C 124.810 89.574, 117.661 70.025, 113.437 61.564 L 108.976 52.629 110.658 48.225 C 111.777 45.295, 113.204 43.482, 114.920 42.808 C 116.339 42.251, 126.229 38.665, 136.899 34.839 L 156.298 27.883 160.899 30.251 C 163.916 31.804, 165.500 33.271, 165.500 34.515 C 165.500 36.715, 165.741 36.653, 139.679 41.100 C 129.680 42.806, 121.347 44.348, 121.159 44.525 C 120.972 44.703, 121.521 48.595, 122.380 53.174 C 123.384 58.528, 123.792 59.715, 123.522 56.500 C 123.291 53.750, 122.808 50.086, 122.448 48.358 L 121.793 45.216 127.147 44.506 C 133.965 43.602, 169.928 37.154, 172.250 36.419 C 175.448 35.407, 174.352 32.418, 165.954 19.250 C 164.578 17.092, 163.683 16.742, 161.500 17.509 M 90.066 27.894 C 77.177 32.685, 66.467 37.098, 66.267 37.700 C 66.066 38.302, 68.367 41.125, 71.380 43.975 C 82.360 54.359, 93.835 74.462, 100.928 95.739 C 104.708 107.079, 107.244 119.268, 105.142 115.995 C 104.610 115.168, 101.834 108.206, 98.973 100.524 C 93.703 86.377, 92.589 83.900, 85.599 70.808 C 81.881 63.845, 71.575 49, 70.458 49 C 70.167 49, 68.933 49.635, 67.715 50.411 C 66.497 51.188, 63.475 52.944, 61 54.314 C 58.525 55.684, 56.500 57.450, 56.500 58.238 C 56.500 59.027, 59.509 62.225, 63.187 65.345 C 76.473 76.617, 89.053 94.626, 93.482 108.715 C 96.517 118.368, 103.759 129.767, 110.316 135.210 C 116.147 140.051, 126.117 145.433, 132.932 147.418 C 139.838 149.430, 153.761 149.462, 161.540 147.485 C 182.319 142.203, 197.464 127.410, 203.560 106.441 C 205.719 99.016, 205.749 86.473, 203.629 78.196 C 201.815 71.117, 198.021 62.759, 196.399 62.267 C 195.793 62.083, 194.533 63.935, 193.598 66.383 C 191.962 70.668, 191.976 71.072, 193.996 77.167 C 196.587 84.990, 196.858 97.586, 194.599 105.196 C 192.828 111.160, 186.958 122.181, 185.248 122.751 C 184.592 122.969, 183.964 121.544, 183.732 119.312 C 183.368 115.807, 183.323 115.889, 183.168 120.333 C 182.955 126.451, 184.225 126.167, 189.273 118.972 C 197.174 107.708, 199.609 90.335, 195.121 77.246 C 193.106 71.370, 193.071 70.767, 194.553 67.246 C 196.055 63.678, 196.199 63.592, 197.565 65.440 C 200.142 68.927, 202.911 77.737, 203.878 85.525 C 208.023 118.911, 181.752 148.039, 147.540 147.988 C 123.038 147.952, 102.764 132.991, 94.739 109.024 C 91.445 99.187, 87.725 92.165, 80.951 83 C 76.447 76.906, 66.197 66.228, 59.575 60.730 L 56.649 58.301 63.052 54.549 C 67.699 51.825, 69.872 51.056, 70.977 51.744 C 73.593 53.370, 83.336 68.496, 88.682 79.228 C 91.496 84.878, 95.475 94.225, 97.525 100 C 101.768 111.954, 107.106 123.091, 107.727 121.283 C 108.445 119.191, 104.932 104.001, 101.307 93.527 C 94.322 73.343, 83.468 54.308, 72.943 43.783 C 69.521 40.361, 67.577 37.725, 68.285 37.465 C 68.953 37.221, 79.109 33.416, 90.854 29.010 C 102.599 24.605, 112.729 21, 113.364 21 C 114.477 21, 117.471 24.889, 116.819 25.489 C 116.644 25.651, 113.449 27.160, 109.721 28.842 C 102.683 32.018, 86 41.738, 86 42.663 C 86 42.953, 88.426 46.860, 91.390 51.345 C 105.488 72.672, 111 90.814, 111 115.885 C 111 126.361, 111.070 126.692, 113.819 129.327 C 115.370 130.813, 116.945 131.722, 117.319 131.347 C 117.694 130.973, 118 125.942, 118 120.167 C 118 114.392, 117.779 109.888, 117.508 110.159 C 117.238 110.429, 116.971 115.004, 116.915 120.325 C 116.859 125.646, 116.431 130, 115.963 130 C 113.410 130, 112.323 125.538, 112.129 114.264 C 111.833 97.001, 109.962 87.179, 104.273 73.028 C 100.858 64.537, 92.360 49.357, 88.793 45.377 C 86.890 43.254, 86.891 43.253, 93.838 38.809 C 97.659 36.364, 104.655 32.594, 109.384 30.432 C 118.601 26.217, 119.578 24.810, 115.750 21.266 L 113.500 19.182 90.066 27.894 M 201 36.679 C 199.625 36.902, 182.975 39.604, 164 42.683 C 143.675 45.981, 128.902 48.835, 128.045 49.631 C 126.814 50.773, 127.045 50.824, 129.545 49.962 C 132.254 49.028, 186.275 40.021, 198.935 38.392 L 204.370 37.693 201.586 42.444 C 195.728 52.439, 189.373 66.706, 190.345 67.678 C 190.546 67.880, 191.517 65.897, 192.502 63.272 C 195.021 56.559, 199.749 47.254, 203.187 42.242 C 205.767 38.480, 206.218 35.737, 204.191 36.136 C 203.811 36.211, 202.375 36.455, 201 36.679 M 180 44.051 C 175.550 45.127, 149.140 49.661, 142.370 50.511 L 137.240 51.155 136.513 56.327 C 135.486 63.648, 135.509 67.417, 136.692 85.500 C 137.417 96.589, 137.421 106.258, 136.702 117 C 135.336 137.428, 135.307 140.919, 136.500 141.235 C 139.319 141.982, 141.157 92.679, 139.006 74 C 138.302 67.886, 138.360 63.888, 139.212 59.758 C 140.303 54.472, 140.639 53.976, 143.448 53.514 C 145.127 53.238, 153.409 51.876, 161.853 50.487 C 170.297 49.099, 179.238 47.507, 181.720 46.951 C 185.617 46.077, 186.420 46.183, 187.586 47.719 C 189.407 50.120, 189.330 51.430, 187.113 55.790 C 183.761 62.380, 179.020 77.930, 177.494 87.336 C 175.967 96.753, 175.507 117.125, 176.636 125.360 C 177.067 128.502, 177.749 130, 178.751 130 C 179.963 130, 180.105 128.994, 179.535 124.432 C 178.353 114.975, 178.863 95.922, 180.537 87 C 182.754 75.181, 184.666 68.885, 189.107 58.774 L 192.940 50.048 190.720 46.566 C 188.347 42.845, 186.642 42.445, 180 44.051 M 128.195 54.500 C 128.215 56.150, 128.439 56.704, 128.693 55.731 C 128.947 54.758, 128.930 53.408, 128.656 52.731 C 128.382 52.054, 128.175 52.850, 128.195 54.500 M 129.199 60.500 C 129.171 62.150, 129.509 65.525, 129.949 68 C 130.540 71.319, 130.763 71.713, 130.801 69.500 C 130.829 67.850, 130.491 64.475, 130.051 62 C 129.460 58.681, 129.237 58.287, 129.199 60.500 M 124.712 70.500 C 125.016 75.450, 125.431 79.687, 125.633 79.917 C 126.350 80.731, 125.871 69.435, 125.021 65.500 C 124.420 62.715, 124.326 64.234, 124.712 70.500 M 187.122 76.773 C 185.955 81.098, 185.022 85.506, 185.049 86.568 C 185.076 87.631, 186.195 84.256, 187.535 79.069 C 188.875 73.882, 189.807 69.474, 189.607 69.274 C 189.407 69.074, 188.289 72.448, 187.122 76.773 M 131.343 82.500 C 131.346 86.900, 131.522 88.576, 131.733 86.224 C 131.945 83.872, 131.942 80.272, 131.727 78.224 C 131.512 76.176, 131.339 78.100, 131.343 82.500 M 113.079 84.583 C 113.127 85.748, 113.364 85.985, 113.683 85.188 C 113.972 84.466, 113.936 83.603, 113.604 83.271 C 113.272 82.939, 113.036 83.529, 113.079 84.583 M 114.158 89 C 114.158 90.375, 114.385 90.938, 114.662 90.250 C 114.940 89.563, 114.940 88.438, 114.662 87.750 C 114.385 87.063, 114.158 87.625, 114.158 89 M 183.640 93.613 C 183.288 96.179, 183.061 100.354, 183.135 102.890 C 183.223 105.876, 183.572 104.357, 184.128 98.576 C 185.039 89.099, 184.713 85.783, 183.640 93.613 M 115.195 94.500 C 115.215 96.150, 115.439 96.704, 115.693 95.731 C 115.947 94.758, 115.930 93.408, 115.656 92.731 C 115.382 92.054, 115.175 92.850, 115.195 94.500 M 116.272 103 C 116.272 105.475, 116.467 106.487, 116.706 105.250 C 116.944 104.013, 116.944 101.987, 116.706 100.750 C 116.467 99.513, 116.272 100.525, 116.272 103 M 131.355 107.500 C 131.352 112.450, 131.521 114.601, 131.731 112.280 C 131.940 109.959, 131.943 105.909, 131.736 103.280 C 131.530 100.651, 131.358 102.550, 131.355 107.500 M 157.284 100.775 C 152.859 101.484, 148.011 109.966, 148.011 117 C 148.011 124.783, 154.113 134, 159.265 134 C 162.552 134, 166.920 130.435, 168.621 126.364 C 169.380 124.549, 170 120.277, 170 116.870 C 170 106.607, 164.482 99.623, 157.284 100.775 M 130.252 121.500 C 130.263 123.700, 130.468 124.482, 130.707 123.238 C 130.946 121.994, 130.937 120.194, 130.687 119.238 C 130.437 118.282, 130.241 119.300, 130.252 121.500 M 129.195 129.500 C 129.215 131.150, 129.439 131.704, 129.693 130.731 C 129.947 129.758, 129.930 128.408, 129.656 127.731 C 129.382 127.054, 129.175 127.850, 129.195 129.500 M 74.557 162.223 C 72.571 165.058, 72.594 166.451, 74.662 168.519 C 75.929 169.786, 76.030 170.363, 75.086 170.947 C 73.879 171.693, 73.673 175.218, 73.903 191.250 L 74 198 78 198 L 82 198 82 184.559 C 82 176.609, 81.588 170.864, 80.992 170.495 C 80.368 170.109, 80.558 169.299, 81.492 168.365 C 83.537 166.320, 83.387 164.387, 81 162 C 78.404 159.404, 76.485 159.470, 74.557 162.223 M 42.877 162.456 C 42.626 162.707, 42.541 167.770, 42.688 173.706 C 42.835 179.643, 42.965 187.551, 42.977 191.281 L 43 198.062 55.250 197.781 L 67.500 197.500 67.500 194 L 67.500 190.500 59.250 190.210 L 51 189.919 51 175.960 L 51 162 47.167 162 C 45.058 162, 43.128 162.205, 42.877 162.456 M 75.709 162.624 C 74.432 163.901, 74.966 167.773, 76.500 168.362 C 79.172 169.387, 81.128 167.915, 80.804 165.122 C 80.505 162.547, 77.339 160.995, 75.709 162.624 M 150.920 162.250 C 150.321 164.112, 150.185 176.096, 150.652 185.780 L 151.244 198.060 163.372 197.780 L 175.500 197.500 175.830 194.609 C 176.273 190.728, 174.824 190.033, 166.250 190.015 L 159 190 159 186.500 L 159 183 164.500 183 L 170 183 170 179.607 C 170 175.762, 168.828 175, 162.918 175 C 159.243 175, 159 174.816, 159 172.040 L 159 169.081 167.250 168.790 L 175.500 168.500 175.813 165.250 L 176.127 162 163.563 162 C 156.654 162, 150.964 162.113, 150.920 162.250 M 44 180.033 L 44 197.066 55.250 196.783 C 65.992 196.513, 66.514 196.400, 66.814 194.291 C 67.114 192.185, 66.746 192.070, 58.814 191.791 L 50.500 191.500 50.223 177.250 L 49.945 163 46.973 163 L 44 163 44 180.033 M 152 180.033 L 152 197.066 163.250 196.783 C 173.992 196.513, 174.514 196.400, 174.814 194.291 C 175.114 192.185, 174.746 192.070, 166.814 191.791 L 158.500 191.500 158.195 186.750 L 157.890 182 163.445 182 C 168.672 182, 169 181.855, 169 179.552 C 169 177.304, 168.571 177.080, 163.750 176.802 L 158.500 176.500 158.193 172.250 L 157.885 168 166.443 168 C 174.904 168, 175 167.972, 175 165.500 L 175 163 163.500 163 L 152 163 152 180.033 M 92.796 170.771 C 90.225 171.107, 90.078 171.428, 89.796 177.312 C 89.633 180.715, 89.639 188.787, 89.809 195.250 L 90.118 207 94.059 207 L 98 207 98 202.123 L 98 197.246 102.473 197.750 C 106.565 198.211, 107.247 197.953, 110.473 194.727 C 114.023 191.177, 114.659 188.831, 114.055 181.516 C 113.449 174.162, 106.917 168.788, 101.064 170.828 C 99.570 171.348, 97.708 171.469, 96.924 171.097 C 96.141 170.724, 94.283 170.578, 92.796 170.771 M 127.619 171.012 C 123.986 172.128, 120 175.818, 120 178.065 C 120 180.410, 126.827 181.312, 129.176 179.277 C 131.179 177.541, 134.500 177.955, 134.500 179.941 C 134.500 180.920, 133.050 181.438, 129.775 181.628 C 123.514 181.992, 121.396 183.269, 119.990 187.530 C 119.018 190.476, 119.089 191.487, 120.410 193.503 C 122.834 197.203, 124.761 197.801, 134.250 197.801 L 143 197.800 143 186.989 L 143 176.178 139.923 173.589 C 138.231 172.165, 136.319 170.994, 135.673 170.986 C 135.028 170.979, 133.600 170.782, 132.500 170.550 C 131.400 170.317, 129.204 170.525, 127.619 171.012 M 188.021 171.116 C 184.291 172.604, 182 175.049, 182 177.541 C 182 179.290, 182.704 179.881, 185.250 180.273 C 187.313 180.591, 189.112 180.235, 190.176 179.299 C 192.182 177.533, 195.500 177.949, 195.500 179.966 C 195.500 180.923, 194.163 181.512, 191.500 181.727 C 184.815 182.266, 183.391 182.846, 182.171 185.523 C 180.364 189.491, 180.771 192.862, 183.374 195.465 C 185.531 197.622, 186.582 197.836, 194.874 197.810 L 204 197.781 204.175 191.141 C 204.563 176.435, 203.748 173.628, 198.452 171.415 C 194.565 169.792, 191.556 169.705, 188.021 171.116 M 212.175 171.225 C 210.804 172.596, 210.540 194.726, 211.870 196.824 C 212.375 197.621, 214.063 198.019, 216.105 197.824 L 219.500 197.500 219.796 189.547 C 220.120 180.840, 220.843 179.273, 224.757 178.809 C 228.220 178.399, 229.918 173.198, 227.241 171.202 C 226.283 170.488, 224.600 170.190, 223.500 170.538 C 221.152 171.283, 218.318 171.294, 215.425 170.569 C 214.284 170.284, 212.821 170.579, 212.175 171.225 M 234.508 171 C 234.092 171.677, 233.744 182.971, 233.885 191.250 L 234 198 237.962 198 L 241.925 198 242.212 188.856 C 242.444 181.496, 242.836 179.500, 244.222 178.628 C 245.478 177.839, 246.264 177.864, 247.121 178.721 C 248.365 179.965, 248.593 181.692, 248.843 191.810 L 249 198.121 252.750 197.810 L 256.500 197.500 256.786 187.130 C 257.005 179.217, 256.717 176.217, 255.572 174.469 C 253.566 171.408, 248.097 169.632, 244.679 170.932 C 243.110 171.528, 241.845 171.557, 241.503 171.005 C 240.930 170.077, 235.079 170.073, 234.508 171 M 75.219 184.250 L 75.500 196.500 78 196.500 L 80.500 196.500 80.781 184.250 L 81.062 172 78 172 L 74.938 172 75.219 184.250 M 91.226 188.750 L 91.500 205.500 94.250 205.816 C 96.959 206.128, 97 206.049, 97 200.566 C 97 194.812, 97.585 194.172, 101.115 196.061 C 104.028 197.621, 109.708 195.466, 111.422 192.151 C 114.421 186.352, 113.821 178.667, 110.077 174.923 C 107.004 171.850, 101.490 170.910, 99.313 173.087 C 98.530 173.870, 98.038 173.870, 97.554 173.087 C 97.184 172.489, 95.548 172, 93.917 172 L 90.952 172 91.226 188.750 M 125.500 173.155 C 122.876 174.590, 120.929 177.076, 121.591 178.147 C 122.325 179.334, 127.747 179.218, 128.500 178 C 129.434 176.489, 133.590 176.802, 134.989 178.487 C 137.276 181.242, 135.431 183, 130.254 183 C 123.940 183, 121 185.061, 121 189.485 C 121 191.340, 121.670 193.528, 122.490 194.347 C 124.652 196.509, 129.215 197.249, 132.555 195.979 C 134.589 195.206, 135.564 195.193, 135.813 195.938 C 136.007 196.522, 137.479 197, 139.083 197 L 142 197 142 187.582 C 142 182.402, 141.720 177.435, 141.379 176.545 C 139.907 172.710, 130.129 170.623, 125.500 173.155 M 185.750 173.974 C 182.153 176.814, 182.175 179, 185.800 179 C 187.340 179, 189.085 178.515, 189.678 177.922 C 190.271 177.329, 192.049 176.991, 193.628 177.172 C 195.918 177.433, 196.564 178.057, 196.816 180.250 C 197.124 182.921, 196.991 183, 192.201 183 C 188.726 183, 186.491 183.612, 184.635 185.073 C 177.960 190.323, 185.104 199.192, 193.452 196.018 C 195.436 195.264, 196.647 195.247, 197.363 195.963 C 197.933 196.533, 199.435 197, 200.700 197 C 202.952 197, 203 196.783, 203 186.655 C 203 174.319, 202.100 172.919, 193.735 172.233 C 189.461 171.882, 187.995 172.202, 185.750 173.974 M 213 184.566 L 213 197.133 215.750 196.816 C 218.464 196.504, 218.504 196.396, 218.796 188.547 C 219.121 179.807, 219.840 178.270, 223.823 177.809 C 225.905 177.569, 226.570 176.889, 226.816 174.750 C 227.074 172.511, 226.737 172, 225.001 172 C 223.828 172, 221.998 172.466, 220.934 173.035 C 219.601 173.749, 219 173.749, 219 173.035 C 219 172.466, 217.650 172, 216 172 L 213 172 213 184.566 M 235 184.566 L 235 197.133 237.750 196.816 C 240.481 196.502, 240.502 196.442, 240.794 188.050 C 241.110 178.937, 241.951 177, 245.587 177 C 248.970 177, 250 179.802, 250 189.001 L 250 197.133 252.750 196.816 L 255.500 196.500 255.500 186.160 C 255.500 176.498, 255.345 175.694, 253.139 173.910 C 250.457 171.740, 245.051 171.386, 243.075 173.250 C 242.015 174.250, 241.658 174.250, 241.292 173.250 C 241.040 172.563, 239.521 172, 237.917 172 L 235 172 235 184.566 M 98.872 178.654 C 96.736 181.228, 97.100 188.869, 99.441 190.581 C 101.990 192.445, 102.621 192.379, 105 190 C 107.198 187.802, 107.690 182.158, 105.965 178.934 C 104.697 176.565, 100.736 176.408, 98.872 178.654 M 99.121 181.524 C 97.763 186.442, 99.193 190.255, 102.231 189.819 C 107.010 189.134, 107.065 178.874, 102.294 178.189 C 100.550 177.938, 99.931 178.589, 99.121 181.524 M 127.309 187.636 C 126.527 189.676, 128.156 192.390, 130.432 192.838 C 132.627 193.269, 136 190.246, 136 187.845 C 136 186.357, 135.220 186, 131.969 186 C 129.159 186, 127.747 186.496, 127.309 187.636 M 189.011 187.487 C 188.332 188.305, 188.041 189.665, 188.365 190.510 C 189.911 194.538, 197 192.905, 197 188.521 C 197 186.324, 196.566 186, 193.622 186 C 191.765 186, 189.689 186.669, 189.011 187.487 M 129.250 187.662 C 127.282 188.456, 127.792 191, 129.918 191 C 132.899 191, 135 189.922, 135 188.393 C 135 187.030, 131.819 186.626, 129.250 187.662 M 190.010 188.488 C 189.012 189.690, 189.073 190.091, 190.329 190.573 C 192.794 191.519, 195.447 190.631, 195.812 188.739 C 196.240 186.516, 191.806 186.324, 190.010 188.488" stroke="none" fill="#63c4ed" fill-rule="evenodd"/><path d="M 157 20.182 C 126.072 29.214, 114.240 33.519, 102.434 40.037 L 94.898 44.196 96.649 46.848 C 108.992 65.553, 114.719 81.630, 116.957 103.856 C 118.141 115.616, 118.335 130.331, 117.319 131.347 C 116.945 131.722, 115.370 130.813, 113.819 129.327 C 111.070 126.692, 111 126.361, 111 115.885 C 111 90.814, 105.488 72.672, 91.390 51.345 C 88.426 46.860, 86 42.953, 86 42.663 C 86 41.738, 102.683 32.018, 109.721 28.842 C 113.449 27.160, 116.644 25.651, 116.819 25.489 C 117.471 24.889, 114.477 21, 113.364 21 C 112.729 21, 102.599 24.605, 90.854 29.010 C 79.109 33.416, 68.953 37.221, 68.285 37.465 C 67.577 37.725, 69.521 40.361, 72.943 43.783 C 83.468 54.308, 94.322 73.343, 101.307 93.527 C 104.932 104.001, 108.445 119.191, 107.727 121.283 C 107.106 123.091, 101.768 111.954, 97.525 100 C 95.475 94.225, 91.496 84.878, 88.682 79.228 C 83.336 68.496, 73.593 53.370, 70.977 51.744 C 69.872 51.056, 67.699 51.825, 63.052 54.549 L 56.649 58.301 59.575 60.730 C 66.197 66.228, 76.447 76.906, 80.951 83 C 87.725 92.165, 91.445 99.187, 94.739 109.024 C 102.764 132.991, 123.038 147.952, 147.540 147.988 C 181.752 148.039, 208.023 118.911, 203.878 85.525 C 202.911 77.737, 200.142 68.927, 197.565 65.440 C 196.199 63.592, 196.055 63.678, 194.553 67.246 C 193.071 70.767, 193.106 71.370, 195.121 77.246 C 199.609 90.335, 197.174 107.708, 189.273 118.972 C 183.306 127.477, 183 127.104, 183.003 111.333 C 183.009 85.815, 188.834 64.204, 201.556 42.494 L 204.351 37.726 198.557 38.450 C 189.346 39.600, 129.021 49.642, 128.610 50.092 C 128.406 50.317, 128.873 54.100, 129.648 58.500 C 130.423 62.900, 131.328 76.400, 131.659 88.500 C 132.141 106.136, 131.919 113.178, 130.542 124 C 129.597 131.425, 128.641 137.686, 128.416 137.912 C 128.192 138.139, 126.825 137.786, 125.378 137.126 C 122.928 136.010, 122.791 135.605, 123.368 131.214 C 123.710 128.621, 124.270 121.775, 124.614 116 C 125.164 106.752, 124.935 104.308, 122.688 95.500 C 119.705 83.808, 114.692 70.309, 109.515 60.029 C 107.492 56.014, 106.070 52.002, 106.353 51.114 C 106.637 50.226, 107.519 47.736, 108.314 45.580 C 109.940 41.169, 109.033 41.588, 142.070 30.004 C 157.937 24.440, 158.690 24.274, 159.828 26.097 C 160.483 27.146, 162.142 28, 163.525 28 C 165.406 28, 166.449 28.874, 167.701 31.500 C 169.650 35.587, 173.641 36.640, 172.440 32.750 C 171.610 30.062, 167.697 23.335, 165.251 20.392 L 163.500 18.283 157 20.182 M 136.500 34.937 C 126.050 38.709, 116.339 42.251, 114.920 42.808 C 113.176 43.493, 111.770 45.313, 110.582 48.423 C 108.831 53.008, 108.834 53.041, 111.328 57.296 C 114.745 63.127, 120.407 76.999, 123.502 87.121 L 126.064 95.500 125.517 83.478 C 125.038 72.968, 124.080 64.705, 121.442 48.329 L 120.770 44.157 125.635 43.458 C 128.311 43.073, 138.375 41.350, 148 39.629 C 163.501 36.857, 165.500 36.281, 165.500 34.581 C 165.500 33.331, 163.962 31.848, 161.093 30.331 C 158.669 29.049, 156.419 28.018, 156.093 28.039 C 155.767 28.061, 146.950 31.165, 136.500 34.937 M 180 44.051 C 175.550 45.127, 149.140 49.661, 142.370 50.511 L 137.240 51.155 136.513 56.327 C 135.486 63.648, 135.509 67.417, 136.692 85.500 C 137.417 96.589, 137.421 106.258, 136.702 117 C 135.336 137.428, 135.307 140.919, 136.500 141.235 C 139.319 141.982, 141.157 92.679, 139.006 74 C 138.302 67.886, 138.360 63.888, 139.212 59.758 C 140.303 54.472, 140.639 53.976, 143.448 53.514 C 145.127 53.238, 153.409 51.876, 161.853 50.487 C 170.297 49.099, 179.238 47.507, 181.720 46.951 C 185.617 46.077, 186.420 46.183, 187.586 47.719 C 189.407 50.120, 189.330 51.430, 187.113 55.790 C 183.761 62.380, 179.020 77.930, 177.494 87.336 C 175.967 96.753, 175.507 117.125, 176.636 125.360 C 177.067 128.502, 177.749 130, 178.751 130 C 179.963 130, 180.105 128.994, 179.535 124.432 C 178.353 114.975, 178.863 95.922, 180.537 87 C 182.754 75.181, 184.666 68.885, 189.107 58.774 L 192.940 50.048 190.720 46.566 C 188.347 42.845, 186.642 42.445, 180 44.051 M 157.284 100.775 C 152.859 101.484, 148.011 109.966, 148.011 117 C 148.011 124.783, 154.113 134, 159.265 134 C 162.552 134, 166.920 130.435, 168.621 126.364 C 169.380 124.549, 170 120.277, 170 116.870 C 170 106.607, 164.482 99.623, 157.284 100.775 M 75.709 162.624 C 74.432 163.901, 74.966 167.773, 76.500 168.362 C 79.172 169.387, 81.128 167.915, 80.804 165.122 C 80.505 162.547, 77.339 160.995, 75.709 162.624 M 44 180.033 L 44 197.066 55.250 196.783 C 65.992 196.513, 66.514 196.400, 66.814 194.291 C 67.114 192.185, 66.746 192.070, 58.814 191.791 L 50.500 191.500 50.223 177.250 L 49.945 163 46.973 163 L 44 163 44 180.033 M 152 180.033 L 152 197.066 163.250 196.783 C 173.992 196.513, 174.514 196.400, 174.814 194.291 C 175.114 192.185, 174.746 192.070, 166.814 191.791 L 158.500 191.500 158.195 186.750 L 157.890 182 163.445 182 C 168.672 182, 169 181.855, 169 179.552 C 169 177.304, 168.571 177.080, 163.750 176.802 L 158.500 176.500 158.193 172.250 L 157.885 168 166.443 168 C 174.904 168, 175 167.972, 175 165.500 L 175 163 163.500 163 L 152 163 152 180.033 M 75.219 184.250 L 75.500 196.500 78 196.500 L 80.500 196.500 80.781 184.250 L 81.062 172 78 172 L 74.938 172 75.219 184.250 M 91.226 188.750 L 91.500 205.500 94.250 205.816 C 96.959 206.128, 97 206.049, 97 200.566 C 97 194.812, 97.585 194.172, 101.115 196.061 C 104.028 197.621, 109.708 195.466, 111.422 192.151 C 114.421 186.352, 113.821 178.667, 110.077 174.923 C 107.004 171.850, 101.490 170.910, 99.313 173.087 C 98.530 173.870, 98.038 173.870, 97.554 173.087 C 97.184 172.489, 95.548 172, 93.917 172 L 90.952 172 91.226 188.750 M 125.500 173.155 C 122.876 174.590, 120.929 177.076, 121.591 178.147 C 122.325 179.334, 127.747 179.218, 128.500 178 C 129.434 176.489, 133.590 176.802, 134.989 178.487 C 137.276 181.242, 135.431 183, 130.254 183 C 123.940 183, 121 185.061, 121 189.485 C 121 191.340, 121.670 193.528, 122.490 194.347 C 124.652 196.509, 129.215 197.249, 132.555 195.979 C 134.589 195.206, 135.564 195.193, 135.813 195.938 C 136.007 196.522, 137.479 197, 139.083 197 L 142 197 142 187.582 C 142 182.402, 141.720 177.435, 141.379 176.545 C 139.907 172.710, 130.129 170.623, 125.500 173.155 M 185.750 173.974 C 182.153 176.814, 182.175 179, 185.800 179 C 187.340 179, 189.085 178.515, 189.678 177.922 C 190.271 177.329, 192.049 176.991, 193.628 177.172 C 195.918 177.433, 196.564 178.057, 196.816 180.250 C 197.124 182.921, 196.991 183, 192.201 183 C 188.726 183, 186.491 183.612, 184.635 185.073 C 177.960 190.323, 185.104 199.192, 193.452 196.018 C 195.436 195.264, 196.647 195.247, 197.363 195.963 C 197.933 196.533, 199.435 197, 200.700 197 C 202.952 197, 203 196.783, 203 186.655 C 203 174.319, 202.100 172.919, 193.735 172.233 C 189.461 171.882, 187.995 172.202, 185.750 173.974 M 213 184.566 L 213 197.133 215.750 196.816 C 218.464 196.504, 218.504 196.396, 218.796 188.547 C 219.121 179.807, 219.840 178.270, 223.823 177.809 C 225.905 177.569, 226.570 176.889, 226.816 174.750 C 227.074 172.511, 226.737 172, 225.001 172 C 223.828 172, 221.998 172.466, 220.934 173.035 C 219.601 173.749, 219 173.749, 219 173.035 C 219 172.466, 217.650 172, 216 172 L 213 172 213 184.566 M 235 184.566 L 235 197.133 237.750 196.816 C 240.481 196.502, 240.502 196.442, 240.794 188.050 C 241.110 178.937, 241.951 177, 245.587 177 C 248.970 177, 250 179.802, 250 189.001 L 250 197.133 252.750 196.816 L 255.500 196.500 255.500 186.160 C 255.500 176.498, 255.345 175.694, 253.139 173.910 C 250.457 171.740, 245.051 171.386, 243.075 173.250 C 242.015 174.250, 241.658 174.250, 241.292 173.250 C 241.040 172.563, 239.521 172, 237.917 172 L 235 172 235 184.566 M 98.872 178.654 C 96.736 181.228, 97.100 188.869, 99.441 190.581 C 101.990 192.445, 102.621 192.379, 105 190 C 107.198 187.802, 107.690 182.158, 105.965 178.934 C 104.697 176.565, 100.736 176.408, 98.872 178.654 M 127.309 187.636 C 126.527 189.676, 128.156 192.390, 130.432 192.838 C 132.627 193.269, 136 190.246, 136 187.845 C 136 186.357, 135.220 186, 131.969 186 C 129.159 186, 127.747 186.496, 127.309 187.636 M 189.011 187.487 C 188.332 188.305, 188.041 189.665, 188.365 190.510 C 189.911 194.538, 197 192.905, 197 188.521 C 197 186.324, 196.566 186, 193.622 186 C 191.765 186, 189.689 186.669, 189.011 187.487" stroke="none" fill="#0e9cd4" fill-rule="evenodd"/></svg>